<svg xmlns="http://www.w3.org/2000/svg" viewBox="0 0 512 512"><title>logo</title><g id="logo"><polygon points="329.61 298.5 329.61 213.5 256 256 182.39 213.5 182.39 298.5 182.39 383.5 108.78 426 182.39 468.5 256 511 329.61 468.5 403.22 426 329.61 383.5 329.61 298.5" fill="#212121"/><polygon points="403.22 256 403.22 171 403.22 86 329.61 128.5 256 171 182.39 128.5 108.78 86 108.78 171 108.78 256 108.78 341 108.78 426 182.39 383.5 182.39 298.5 182.39 213.5 256 256 329.61 213.5 329.61 298.5 329.61 383.5 403.22 426 403.22 341 403.22 256" fill="#fff"/><polygon points="403.22 86 403.22 171 403.22 256 403.22 341 403.22 426 476.841 383.5 476.841 298.5 476.841 213.5 476.841 128.5 403.22 86" fill="#212121"/><polygon points="256 171 329.61 128.5 403.22 86 329.61 43.5 256 1 182.39 43.5 108.78 86 182.39 128.5 256 171" fill="#212121"/><polygon points="108.78 256 108.78 171 108.78 86 35.159 128.5 35.159 213.5 35.159 298.5 35.159 383.5 108.78 426 108.78 341 108.78 256" fill="#212121"/></g></svg>